<?xml version="1.0" standalone="no"?>
<!DOCTYPE svg PUBLIC "-//W3C//DTD SVG 20010904//EN"
 "http://www.w3.org/TR/2001/REC-SVG-20010904/DTD/svg10.dtd">
<svg version="1.0" xmlns="http://www.w3.org/2000/svg"
 width="260.000000pt" height="260.000000pt" viewBox="0 0 260.000000 260.000000"
 preserveAspectRatio="xMidYMid meet">
<metadata>
Created by potrace 1.11, written by Peter Selinger 2001-2013
</metadata>
<g transform="translate(0.000000,260.000000) scale(0.100000,-0.100000)"
fill="#000000" stroke="none">
<path d="M1297 2493 c-10 -9 -9 -23 1 -23 5 0 9 7 9 15 0 17 -1 18 -10 8z"/>
<path d="M1442 2484 c14 -16 15 -23 6 -32 -7 -7 -9 -12 -6 -12 3 0 11 6 17 13
8 11 6 18 -12 33 -22 19 -22 19 -5 -2z"/>
<path d="M1355 2479 c-4 -6 -5 -12 -2 -15 2 -3 7 2 10 11 7 17 1 20 -8 4z"/>
<path d="M1255 2470 c-3 -6 1 -7 9 -4 18 7 21 14 7 14 -6 0 -13 -4 -16 -10z"/>
<path d="M1037 2456 c5 -15 3 -17 -8 -11 -11 6 -12 5 -1 -6 15 -16 16 -37 1
-22 -13 13 -59 -3 -59 -20 0 -6 -3 -7 -7 -4 -3 4 -15 0 -25 -10 -17 -15 -19
-15 -37 1 -17 16 -19 15 -35 -9 -9 -14 -21 -25 -27 -25 -7 0 -6 6 2 17 13 15
12 15 -8 2 -14 -8 -18 -16 -12 -20 8 -4 8 -9 1 -13 -6 -3 -13 -2 -17 4 -3 5
-10 10 -16 10 -5 0 -1 -8 9 -18 13 -15 19 -15 25 -5 5 7 12 11 18 8 5 -4 9 -1
9 4 0 6 6 10 13 9 6 -2 11 3 9 10 -1 6 2 12 8 12 6 0 10 -6 10 -12 0 -9 4 -8
10 2 8 12 10 12 10 1 0 -11 3 -11 15 -1 13 11 14 10 9 -5 -6 -14 -4 -16 6 -10
8 5 11 4 6 -3 -4 -6 -14 -8 -23 -5 -12 5 -14 3 -8 -8 5 -8 1 -7 -12 4 -11 9
-23 14 -26 10 -11 -10 -8 -23 4 -20 6 1 14 -5 16 -13 4 -12 3 -12 -5 -2 -5 8
-12 13 -16 13 -3 -1 -8 0 -11 0 -22 6 -32 2 -42 -16 -7 -11 -12 -14 -13 -7 0
7 -4 11 -10 7 -5 -3 -8 -11 -6 -18 1 -7 1 -9 -1 -4 -3 4 -9 7 -14 7 -5 0 -8
-3 -8 -7 1 -5 1 -15 0 -23 -1 -12 -3 -12 -12 2 -5 10 -16 15 -24 12 -8 -4 -15
-1 -15 4 0 6 9 9 20 7 12 -2 18 0 15 6 -4 5 -3 9 2 8 21 -4 34 2 27 13 -5 7
-3 8 6 3 9 -5 11 -4 6 3 -10 17 -26 15 -26 -4 0 -8 -4 -13 -9 -9 -5 3 -12 1
-16 -5 -4 -7 -12 -7 -24 0 -16 8 -17 6 -13 -15 2 -14 9 -25 16 -26 6 0 1 -4
-12 -10 -15 -6 -21 -13 -15 -21 9 -15 13 -61 4 -52 -3 3 -7 14 -7 25 -2 32 -4
33 -17 15 -12 -16 -13 -16 -13 3 0 11 5 17 10 14 5 -4 6 -1 1 7 -6 9 -4 11 5
5 9 -6 11 -4 5 5 -5 8 -4 11 1 7 6 -3 11 4 11 16 2 16 0 18 -7 8 -7 -13 -11
-13 -27 0 -17 13 -17 13 -4 -4 11 -13 11 -21 3 -29 -15 -15 -55 -22 -47 -8 4
6 -1 7 -10 3 -11 -4 -13 -8 -5 -13 6 -3 8 -14 4 -23 -3 -9 -9 -15 -13 -13 -13
8 -43 -23 -45 -48 -3 -28 8 -35 17 -12 3 8 1 16 -6 19 -7 2 -7 6 -1 10 5 3 16
-4 23 -16 8 -12 10 -19 6 -15 -5 4 -13 0 -20 -9 -13 -17 -40 -9 -29 9 4 7 2 8
-5 4 -6 -4 -19 -2 -28 6 -12 9 -15 9 -9 1 4 -8 2 -13 -5 -13 -16 0 -5 -11 13
-14 21 -3 38 -16 38 -29 0 -8 -4 -7 -9 2 -13 21 -40 22 -40 3 -1 -38 -5 -51
-12 -47 -4 3 -10 -2 -13 -11 -4 -11 -2 -15 8 -11 15 6 16 -17 1 -30 -4 -4 -5
-3 -2 3 4 7 0 14 -8 18 -9 3 -12 12 -9 23 5 17 5 17 -6 0 -6 -9 -8 -21 -5 -27
6 -10 -23 -27 -42 -24 -7 1 -18 2 -24 3 -5 0 -7 6 -3 13 4 7 3 8 -4 4 -6 -4
-8 -14 -5 -23 5 -12 3 -14 -8 -8 -8 4 -11 4 -6 0 4 -5 0 -16 -8 -25 -14 -16
-14 -21 6 -54 11 -20 26 -33 32 -29 6 3 7 1 3 -6 -6 -9 -11 -9 -22 0 -11 9
-18 8 -31 -2 -10 -7 -20 -14 -22 -16 -2 -1 4 -9 13 -18 9 -9 16 -24 15 -33 0
-12 -3 -11 -9 6 -5 12 -12 22 -16 22 -3 0 -3 -7 0 -16 5 -14 4 -15 -9 -4 -9 8
-15 8 -15 2 0 -6 4 -13 9 -17 17 -10 8 -42 -10 -38 -10 3 -17 13 -16 23 1 10
5 16 11 13 5 -3 6 -1 2 5 -9 14 21 72 37 72 8 0 7 4 -3 10 -13 9 -13 10 0 11
8 1 19 1 25 -1 5 -1 1 8 -9 19 -22 24 -35 29 -16 6 15 -18 -1 -20 -18 -3 -9 9
-12 9 -12 0 0 -7 5 -12 11 -12 8 0 9 -4 0 -13 -6 -8 -7 -17 -3 -22 4 -4 -4 -4
-18 -1 -21 6 -22 5 -8 -4 19 -12 12 -32 -24 -74 -16 -18 -19 -64 -5 -58 4 1
10 2 13 2 4 0 2 6 -4 13 -8 9 -8 17 0 27 8 12 9 12 4 -2 -3 -10 -2 -17 2 -17
27 4 35 -2 17 -15 -18 -13 -18 -13 1 -24 17 -10 17 -11 2 -12 -10 0 -18 5 -18
11 0 5 -5 7 -12 3 -7 -5 -5 -11 7 -21 11 -7 13 -13 7 -13 -22 0 -27 5 -26 23
2 19 -11 23 -21 7 -4 -6 -10 -8 -14 -6 -4 3 -6 -7 -6 -22 1 -15 -4 -33 -9 -41
-8 -11 -8 -13 1 -8 6 4 14 3 18 -3 3 -5 -1 -10 -9 -10 -20 0 -31 -19 -17 -33
17 -17 13 -31 -4 -17 -13 10 -18 11 -28 1 -9 -10 -8 -11 7 -5 15 6 18 4 13 -9
-4 -12 -2 -14 10 -10 13 5 13 2 -2 -21 -10 -14 -25 -31 -34 -36 -14 -9 -14
-10 3 -8 10 2 21 -3 23 -10 3 -8 -2 -10 -14 -6 -16 5 -16 4 2 -7 19 -12 19
-12 0 -20 -18 -7 -18 -8 -2 -8 10 -1 16 -5 12 -11 -3 -5 -13 -7 -23 -3 -9 3
-3 -6 13 -21 17 -14 25 -25 19 -26 -5 0 -16 6 -24 13 -8 6 -11 8 -7 3 4 -5 1
-16 -6 -25 -11 -14 -10 -14 6 -2 10 8 17 9 17 3 0 -6 -8 -15 -17 -21 -10 -5
-14 -13 -10 -17 4 -4 15 2 23 15 9 12 22 20 30 17 8 -3 14 1 14 10 0 8 -6 17
-13 20 -8 3 -14 11 -14 19 0 21 13 19 21 -2 3 -10 10 -28 15 -40 9 -19 7 -21
-15 -18 -21 2 -29 -5 -21 -20 1 -2 -6 -10 -15 -17 -10 -7 -16 -22 -14 -33 2
-11 -2 -27 -8 -35 -6 -9 -2 -8 10 3 21 17 22 17 29 -5 4 -13 7 -26 6 -30 -1
-5 5 -8 13 -8 8 0 18 -4 21 -10 3 -6 -1 -7 -10 -4 -11 5 -14 2 -9 -10 3 -9 2
-16 -3 -16 -5 0 -10 7 -11 15 -1 8 -3 22 -4 30 -2 21 -24 26 -45 9 -17 -14
-17 -14 4 -5 16 8 22 7 27 -5 4 -9 2 -22 -4 -29 -8 -9 -8 -15 0 -20 13 -8 13
-35 0 -35 -5 0 -10 7 -10 17 0 9 -3 14 -6 10 -4 -3 -3 -14 1 -24 5 -10 7 -22
6 -26 -1 -5 3 -6 8 -3 12 8 42 -34 34 -47 -4 -6 0 -8 8 -5 8 3 23 2 34 -3 16
-6 16 -8 3 -8 -14 -1 -16 -12 -8 -41 1 -3 5 4 10 15 7 16 9 17 9 3 1 -9 -4
-20 -9 -23 -6 -3 -10 -11 -10 -17 0 -6 7 -5 18 3 15 12 16 12 5 -2 -10 -12
-10 -19 1 -34 12 -16 11 -23 -2 -45 l-16 -25 29 25 c21 17 25 19 14 5 -25 -31
-34 -49 -21 -41 17 10 15 -1 -5 -23 -9 -11 -21 -17 -27 -14 -6 4 -7 2 -3 -3 8
-9 12 -10 40 -13 8 -1 7 -4 -3 -11 -8 -5 -10 -10 -4 -10 19 0 24 12 13 33 -9
15 -8 18 2 12 8 -6 10 -4 4 5 -6 9 -4 11 4 5 10 -6 11 -3 2 13 -8 15 -8 23 1
28 7 4 8 3 4 -4 -4 -7 -2 -12 3 -12 6 0 10 -6 9 -13 -2 -6 2 -11 8 -10 10 2
10 -67 -1 -95 -6 -17 5 -43 16 -36 5 3 9 -1 9 -8 0 -7 10 -19 22 -27 21 -13
21 -14 2 -29 -17 -13 -17 -14 -1 -8 10 3 23 6 29 6 7 0 7 4 0 13 -7 8 -7 18
-2 27 9 13 10 13 11 0 1 -8 1 -18 0 -23 0 -4 3 -7 9 -7 5 0 10 5 10 12 0 6 3
8 7 5 3 -4 -3 -16 -14 -27 -12 -10 -23 -17 -25 -15 -2 2 -4 -11 -4 -30 0 -36
2 -36 53 1 43 32 50 30 13 -4 -33 -29 -29 -52 8 -55 12 -1 22 -5 22 -9 0 -10
37 -10 43 0 2 4 2 2 1 -5 -2 -7 1 -15 6 -18 6 -4 10 -12 10 -18 0 -8 -3 -7 -9
2 -5 7 -11 9 -13 5 -3 -5 -4 -4 -2 1 1 6 -7 12 -17 12 -10 1 -19 -3 -19 -8 0
-6 4 -7 10 -4 5 3 10 2 10 -2 0 -5 7 -18 15 -29 10 -13 13 -14 10 -3 -4 10 0
16 10 16 10 0 13 -6 10 -17 -6 -19 16 -33 39 -24 8 3 17 0 22 -7 4 -7 3 -10
-3 -6 -6 4 -19 -3 -29 -16 -19 -22 -19 -22 2 -4 11 9 24 14 27 11 4 -4 -1 -12
-10 -19 -13 -9 -13 -14 -3 -20 9 -6 11 -4 5 5 -6 10 -4 12 9 7 10 -4 15 -3 11
3 -3 6 1 10 10 10 9 0 13 5 10 10 -4 6 -11 7 -17 4 -7 -4 -8 -2 -4 4 4 6 0 22
-9 35 -14 21 -14 24 0 24 9 0 14 -6 11 -13 -5 -13 17 -38 26 -29 3 3 4 -7 2
-22 -1 -15 -11 -33 -20 -40 -10 -7 -13 -13 -7 -13 7 0 15 5 18 10 4 6 11 7 17
4 6 -4 5 -9 -3 -15 -7 -4 -10 -11 -6 -16 5 -4 11 -3 15 2 6 9 45 12 65 5 21
-8 33 -4 44 15 12 20 12 20 10 -2 -1 -13 -5 -23 -10 -23 -4 0 -5 -5 -2 -10 5
-8 11 -7 21 1 8 6 17 9 21 5 3 -3 1 -6 -6 -6 -7 0 -10 -4 -6 -10 3 -5 12 -7
19 -4 8 3 20 -4 28 -15 8 -12 17 -19 20 -16 2 3 5 -2 5 -10 0 -8 -4 -12 -9 -9
-4 3 -5 -2 -2 -11 4 -9 13 -14 20 -11 8 3 14 1 14 -3 0 -5 -6 -12 -12 -14 -10
-4 -10 -6 -1 -6 7 -1 17 8 23 19 6 11 7 20 3 20 -4 0 0 5 10 11 10 6 21 9 23
6 12 -11 12 -52 1 -66 -9 -11 -9 -13 0 -8 6 4 15 3 18 -3 5 -8 15 -6 32 5 24
16 25 16 18 -7 -9 -26 -3 -23 14 9 10 20 9 21 -15 17 -16 -3 -23 -1 -19 6 3 6
0 7 -9 4 -9 -3 -16 -1 -16 4 0 6 12 9 26 6 14 -3 23 -1 20 4 -3 5 1 9 9 9 8 0
12 -4 10 -8 -3 -3 2 -12 10 -19 8 -7 15 -18 15 -24 0 -6 -5 -4 -10 4 -15 23
-11 -2 4 -29 l14 -24 6 21 c4 12 12 20 17 17 5 -3 6 1 2 10 -5 13 -7 14 -14 3
-7 -10 -9 -9 -9 4 0 24 18 32 24 10 7 -22 36 -25 36 -5 0 8 -4 12 -9 8 -5 -3
-12 -2 -15 3 -2 4 6 8 19 8 16 0 21 -4 17 -15 -4 -10 -1 -12 9 -7 8 4 5 1 -5
-8 -10 -8 -22 -14 -25 -12 -3 2 -14 -4 -23 -13 -16 -16 -16 -17 2 -17 10 0 17
3 14 7 -5 8 27 22 34 14 3 -3 0 -5 -6 -5 -6 0 -10 -9 -9 -20 1 -11 5 -20 10
-20 5 0 7 7 4 15 -4 8 -2 17 3 20 5 3 12 -4 15 -16 6 -19 7 -20 20 -2 10 13
10 22 3 31 -8 10 -13 10 -18 1 -6 -8 -9 -8 -14 0 -4 6 -2 11 5 11 6 0 9 8 6
20 -3 11 -1 18 4 14 5 -3 9 -12 9 -21 0 -9 3 -13 7 -10 3 4 12 2 20 -4 11 -10
11 -16 -2 -35 -9 -13 -11 -24 -5 -24 5 0 10 5 10 11 0 5 4 8 9 5 5 -3 12 1 15
10 4 10 2 13 -6 8 -7 -4 -8 -3 -4 5 4 6 2 19 -6 28 -7 10 -8 14 -1 10 6 -4 13
-4 16 0 2 5 3 3 1 -3 -1 -6 3 -17 9 -23 7 -7 12 -19 12 -29 0 -11 8 -17 23
-18 18 -1 20 1 11 12 -9 11 -8 14 5 14 11 0 14 5 10 12 -4 7 -3 8 5 4 7 -5 9
-16 5 -28 -4 -12 -2 -18 4 -14 11 6 24 48 14 43 -4 -2 -15 4 -24 14 -16 17
-16 18 2 16 10 -1 17 -4 14 -8 -2 -4 3 -10 12 -13 8 -3 13 -10 10 -14 -3 -5 1
-18 9 -28 8 -11 14 -14 15 -6 0 6 5 12 11 12 5 0 7 -5 3 -11 -4 -8 0 -8 15 0
16 9 21 9 21 -1 0 -9 3 -9 9 2 6 8 8 17 5 21 -4 6 18 6 56 0 3 -1 -2 -6 -10
-12 -13 -9 -13 -10 1 -6 9 3 23 0 30 -6 7 -7 6 -3 -4 9 -20 24 -23 41 -4 25
10 -8 14 -7 14 3 0 9 -8 13 -21 9 -42 -9 -49 -8 -51 13 -1 11 4 21 11 21 7 0
12 -5 11 -10 -1 -5 4 -12 11 -14 8 -3 10 1 6 14 -6 16 -5 16 9 -2 15 -18 16
-18 17 -2 0 9 4 17 10 17 5 0 7 -6 5 -12 -3 -7 -1 -18 3 -24 8 -12 46 -34 59
-34 4 1 -4 8 -19 16 -16 8 -28 21 -28 28 0 22 27 38 51 31 14 -5 19 -3 15 3
-3 6 -1 14 6 18 7 4 10 4 6 -1 -4 -4 3 -16 15 -27 12 -11 17 -17 10 -14 -6 4
-14 2 -17 -3 -9 -14 7 -21 24 -11 11 7 11 13 -3 34 -23 35 -21 39 6 13 16 -15
22 -30 20 -47 -3 -13 -1 -22 2 -18 4 3 7 13 9 21 1 8 7 21 14 29 9 12 9 15 -3
15 -8 0 -11 -5 -8 -11 3 -6 0 -5 -7 1 -12 11 -11 15 6 28 10 8 22 15 27 15 8
0 2 -43 -9 -62 -6 -10 -5 -11 8 -1 8 7 17 10 20 8 3 -3 3 5 1 19 -5 22 -2 25
23 22 15 -2 30 -8 32 -15 2 -6 8 -11 14 -11 6 0 5 7 -3 16 -12 15 -11 16 8 10
16 -5 23 -2 28 13 6 20 19 22 45 6 13 -8 13 -7 1 8 -11 14 -11 18 2 23 20 7
39 -4 31 -18 -5 -7 -2 -8 5 -4 9 6 8 13 -5 27 -12 13 -21 16 -29 9 -6 -5 -16
-6 -20 -2 -5 4 -5 1 0 -7 5 -9 4 -12 -3 -7 -6 3 -13 2 -16 -3 -3 -5 -16 -7
-28 -3 -14 3 -19 2 -14 -7 4 -6 12 -9 17 -6 5 4 9 2 9 -4 0 -5 -5 -13 -10 -16
-6 -3 -10 -1 -10 6 0 8 -4 8 -16 -1 -8 -8 -14 -9 -13 -4 4 23 -2 26 -17 8 -8
-10 -13 -13 -9 -7 4 9 1 11 -9 7 -9 -3 -16 -2 -16 3 0 5 6 10 13 11 40 3 97
29 97 44 0 8 3 9 8 3 11 -16 29 -12 47 10 11 13 15 15 12 4 -5 -16 26 -43 37
-32 11 11 6 25 -7 20 -8 -3 -14 3 -14 14 -1 10 2 20 8 20 5 1 14 3 19 4 6 1
13 3 18 4 4 1 0 6 -8 11 -11 7 -11 10 -2 10 7 0 11 4 8 9 -3 5 2 8 12 7 12 -1
16 5 14 19 -2 16 -1 17 7 5 5 -8 7 -18 5 -22 -3 -4 2 -8 10 -8 19 0 20 4 5 33
-7 12 -8 19 -4 15 4 -4 15 -3 24 1 19 11 59 -13 42 -24 -6 -3 -11 -1 -11 6 0
8 -5 7 -17 -2 -11 -10 -14 -10 -9 -1 4 7 2 12 -4 12 -7 0 -10 -6 -7 -12 2 -7
10 -12 17 -10 7 1 19 -3 27 -9 11 -10 14 -10 11 2 -2 8 3 13 11 11 12 -3 12 0
2 12 -8 10 -9 16 -1 21 5 3 10 0 11 -7 0 -7 5 -3 11 10 6 12 15 22 19 22 4 0
7 9 6 19 0 11 -5 17 -9 15 -5 -3 -6 -9 -3 -14 8 -12 -23 -6 -37 8 -9 9 -9 12
0 12 7 0 12 -5 12 -11 0 -5 5 -7 10 -4 8 5 8 11 0 20 -6 7 -7 15 -3 18 12 7
50 -26 47 -41 -1 -7 0 -8 3 -2 2 5 10 7 16 3 8 -5 8 -2 0 9 -7 8 -9 19 -5 23
4 5 2 5 -5 1 -6 -3 -14 -2 -18 4 -7 11 8 42 18 41 19 -3 21 0 7 9 -8 5 -10 10
-4 10 6 0 18 -8 25 -17 12 -14 12 -16 0 -8 -10 6 -12 4 -6 -5 6 -9 4 -11 -5
-5 -9 5 -11 4 -6 -3 5 -8 2 -10 -8 -6 -9 3 -16 2 -16 -3 0 -5 9 -9 20 -10 11
-1 20 2 20 8 0 5 5 8 11 7 6 -2 13 5 14 15 2 9 0 15 -4 13 -4 -3 -13 4 -20 16
-8 13 -8 18 -1 13 7 -4 10 0 8 11 -2 10 3 19 10 20 6 1 16 2 22 3 5 0 7 8 4
16 -6 14 5 19 33 16 6 -1 15 4 19 10 4 8 3 9 -5 5 -7 -4 -10 -2 -9 5 2 6 -3
14 -11 17 -9 3 -11 0 -6 -9 5 -8 4 -10 0 -6 -12 11 -15 38 -4 31 5 -3 14 5 19
18 10 22 10 21 5 -4 -4 -22 -2 -26 10 -22 8 3 12 11 8 18 -3 6 -3 8 1 5 10 -9
58 40 51 51 -3 5 0 12 6 15 5 4 8 13 5 20 -6 17 18 27 32 13 6 -6 12 -6 17 1
3 6 1 10 -6 9 -6 -2 -14 3 -16 11 -4 10 1 11 18 6 20 -5 21 -4 9 5 -12 10 -11
11 8 7 13 -3 20 -1 16 5 -3 5 -18 7 -33 3 l-26 -7 24 26 c19 20 21 28 13 39
-12 14 -7 27 10 27 5 0 6 -6 2 -12 -4 -8 -3 -10 2 -5 5 5 9 21 10 35 0 15 5
26 11 25 5 -1 10 4 10 12 0 8 -3 12 -6 11 -3 -2 -19 7 -36 20 -28 22 -29 24
-12 41 13 13 20 14 29 5 7 -7 8 -12 2 -12 -6 0 -11 -7 -11 -14 0 -12 5 -13 20
-5 14 8 16 14 8 22 -13 13 -15 31 -2 23 17 -11 19 22 2 38 -15 14 -17 13 -18
-7 -2 -15 0 -18 6 -8 6 9 11 10 15 2 4 -6 4 -11 -1 -12 -4 0 -16 -2 -25 -4
-10 -2 -21 2 -25 7 -3 7 -1 8 5 4 7 -4 12 -3 12 3 0 5 -8 12 -17 14 -17 4 -17
5 0 6 10 0 16 5 12 10 -8 13 33 5 51 -10 10 -8 14 -8 14 0 0 6 -4 11 -10 11
-5 0 -10 5 -10 11 0 5 5 7 11 3 7 -4 7 1 -1 16 -11 20 -10 21 12 15 12 -4 20
-4 16 0 -13 14 -56 13 -62 0 -3 -9 0 -12 10 -8 7 3 14 0 14 -7 0 -6 -5 -8 -12
-4 -7 5 -8 3 -3 -5 6 -10 3 -11 -12 -2 -11 6 -23 7 -27 4 -3 -3 -6 -1 -6 5 0
7 7 12 16 12 14 0 14 3 4 15 -11 13 -10 14 4 9 12 -4 16 0 16 16 0 12 4 18 10
15 6 -4 7 -12 3 -18 -4 -7 2 -5 13 3 29 22 30 24 12 17 -10 -3 -20 -1 -24 5
-5 8 -10 7 -18 -3 -12 -16 -41 -25 -32 -10 4 5 0 12 -6 14 -10 4 -10 6 -1 6 7
1 10 8 7 19 -5 14 -4 14 4 2 6 -8 8 -18 6 -22 -6 -9 10 -11 19 -2 12 12 -15
53 -32 47 -14 -4 -14 -3 -1 6 11 8 18 7 28 -6 11 -15 12 -15 12 4 0 13 -8 24
-20 28 -11 3 -20 11 -20 16 0 6 -4 8 -8 5 -5 -3 -9 1 -9 9 0 10 4 12 12 5 12
-10 25 -4 25 12 0 5 -4 7 -9 3 -5 -3 -12 -1 -15 4 -4 5 2 8 11 6 10 -2 21 -4
25 -4 3 -1 5 -12 4 -25 -2 -14 2 -23 8 -22 6 2 8 1 4 -1 -11 -7 11 -43 25 -43
9 0 8 3 -1 9 -15 9 -13 41 3 54 6 5 3 7 -7 3 -10 -3 -20 -1 -23 4 -5 9 7 14
26 12 4 -1 4 9 1 21 -5 18 -7 19 -10 5 -2 -10 -8 -18 -13 -18 -6 0 -7 5 -3 12
4 7 3 8 -5 4 -6 -4 -14 0 -17 9 -5 12 -9 13 -20 4 -9 -7 -14 -8 -14 -1 0 14
28 23 35 12 3 -5 11 -7 18 -4 15 6 20 41 6 50 -6 3 -5 12 3 22 12 15 11 16 -4
3 -10 -7 -16 -17 -13 -21 3 -5 2 -10 -2 -13 -5 -2 -2 -2 5 -1 14 4 15 -5 3
-24 -6 -11 -10 -10 -15 4 -5 13 -9 15 -18 6 -7 -7 -17 -12 -22 -12 -6 0 -3 5
6 10 9 6 23 24 32 40 8 17 11 28 6 25 -4 -3 -10 1 -13 7 -2 7 -8 9 -13 5 -5
-4 -2 -12 6 -17 10 -6 11 -10 3 -10 -14 0 -38 39 -26 41 4 1 13 2 18 4 6 1 16
3 24 3 10 2 11 5 2 15 -6 8 -8 17 -4 21 4 4 1 4 -8 1 -10 -4 -15 1 -15 15 0
13 5 19 13 16 7 -3 13 -3 13 0 0 2 -12 9 -26 14 -23 9 -24 12 -13 27 8 9 9 14
2 10 -15 -9 -23 14 -11 36 7 13 2 23 -19 43 -15 14 -27 32 -25 39 1 8 -7 12
-23 11 -25 -1 -31 -7 -18 -19 3 -4 12 -2 19 4 10 8 12 6 9 -10 -2 -14 0 -19 7
-15 7 5 8 2 3 -6 -6 -9 -4 -11 5 -5 9 6 11 4 5 -4 -5 -9 -10 -10 -18 -2 -7 7
-17 7 -31 0 -19 -9 -19 -9 -4 4 10 8 15 17 11 20 -3 4 -12 2 -19 -4 -8 -7 -14
-7 -19 1 -4 6 -1 9 7 8 7 -2 11 3 9 12 -2 8 -3 24 -3 34 1 14 -2 16 -11 7 -6
-6 -16 -11 -22 -11 -5 0 -2 5 8 11 26 15 21 32 -5 19 -22 -11 -22 -10 -4 4 21
17 16 33 -6 20 -7 -4 -21 -9 -30 -9 -17 -2 -17 0 -2 16 17 19 10 44 -8 33 -7
-4 -8 -2 -4 5 4 6 12 9 17 6 5 -4 9 -2 9 2 0 13 -56 43 -65 35 -5 -4 -5 -1 -1
6 5 9 12 9 27 2 13 -8 19 -7 19 0 0 6 5 8 10 5 6 -3 10 -1 10 5 0 7 -8 9 -22
4 -21 -6 -22 -5 -8 12 8 10 11 16 6 12 -5 -4 -15 -1 -22 7 -16 16 -19 29 -4
20 6 -3 10 -2 10 4 0 5 -4 13 -10 16 -5 3 -10 1 -10 -6 0 -19 -13 -1 -17 22
-2 13 1 18 9 13 7 -4 8 -3 4 4 -12 20 -29 13 -23 -8 3 -11 0 -20 -6 -20 -8 0
-7 -4 2 -9 7 -5 9 -11 5 -13 -5 -3 -2 -3 6 -1 8 2 11 1 8 -3 -4 -3 3 -15 15
-25 12 -10 16 -18 10 -19 -7 0 -13 5 -13 12 0 6 -3 9 -6 5 -4 -3 -13 0 -20 8
-8 7 -19 15 -26 17 -10 4 -10 8 -1 19 6 8 10 24 8 34 -2 11 -4 23 -4 28 -1 4
-6 7 -11 7 -6 0 -21 9 -33 20 l-21 20 -18 -32 c-12 -21 -16 -25 -13 -10 4 12
2 22 -3 22 -5 0 -24 14 -41 32 -17 17 -31 27 -31 22 0 -6 4 -14 10 -20 6 -6 5
-15 -1 -24 -9 -13 -10 -12 -5 2 3 12 -2 22 -17 30 -12 6 -24 11 -27 10 -3 -1
-5 4 -5 11 0 6 -15 22 -33 34 -31 22 -34 22 -60 7 -26 -15 -26 -15 -4 1 12 10
22 22 22 28 0 8 -3 8 -11 0 -8 -8 -16 -6 -31 9 -16 16 -22 17 -36 6 -14 -11
-14 -10 1 12 21 30 22 44 2 36 -8 -3 -19 3 -25 14 -11 21 -42 21 -48 -1 -2 -8
0 -10 5 -4 11 14 33 17 34 5 1 -5 2 -14 3 -19 0 -5 5 -13 10 -18 5 -4 7 -3 3
3 -3 6 1 11 9 11 11 0 10 -5 -6 -22 -11 -12 -17 -25 -13 -30 5 -4 -2 -2 -14 6
-12 7 -20 16 -17 20 2 4 -5 17 -15 30 -10 13 -16 29 -14 35 2 6 -4 17 -14 25
-15 11 -16 11 -5 -1 6 -8 12 -19 12 -25 -1 -5 -9 0 -19 12 -10 12 -21 19 -25
16 -3 -4 -6 -1 -6 4 0 6 5 14 10 16 6 3 5 4 -2 3 -19 -4 -18 -45 2 -56 10 -5
19 -8 21 -6 2 2 13 -8 23 -22 l20 -27 -23 20 c-19 16 -24 17 -32 5 -8 -13 -12
-12 -24 4 -8 11 -15 16 -15 11 0 -5 -5 -4 -12 3 -8 8 -17 8 -30 1 -11 -6 -22
-8 -25 -6 -2 3 5 8 16 12 12 3 19 11 15 16 -4 6 -11 6 -20 -2 -10 -8 -17 -7
-31 7 -16 15 -16 17 -1 12 11 -5 15 -2 14 10 -2 9 -9 17 -17 17 -8 0 -13 -6
-11 -13 3 -18 -12 -15 -38 8 -22 19 -46 18 -35 -1 4 -5 -4 -9 -16 -9 -21 0
-22 1 -4 20 10 11 15 20 10 20 -4 0 -14 -8 -21 -17 -12 -17 -13 -17 -19 -1 -6
14 -12 15 -33 7 -15 -6 -28 -10 -29 -10 -13 4 -23 -1 -23 -10 0 -8 5 -8 15 1
10 9 15 9 15 1 0 -6 -5 -11 -11 -11 -5 0 -8 -4 -5 -9 3 -5 -1 -11 -9 -14 -9
-4 -12 -1 -8 9 3 9 0 14 -8 12 -9 -2 -14 5 -13 18 0 11 -6 21 -13 21 -9 0 -11
-8 -8 -21 6 -21 6 -21 -9 -2 -15 18 -16 18 -16 2 0 -9 -5 -14 -10 -11 -6 4 -7
12 -3 18 3 7 -3 4 -14 -6 -14 -12 -23 -15 -28 -7 -3 5 -11 8 -16 5 -5 -4 -9
-2 -9 4 0 5 -12 -1 -27 -15 -29 -27 -44 -25 -22 3 7 10 9 15 5 11 -5 -4 -15 0
-23 10 -12 16 -13 16 -6 -2z m313 -21 c7 -8 9 -15 4 -15 -5 0 -1 -7 10 -15 18
-13 18 -14 -2 -12 -11 0 -18 5 -15 11 4 5 -1 7 -11 3 -14 -5 -15 -3 -6 12 7
15 6 19 -5 17 -8 -1 -18 -6 -22 -11 -4 -4 -1 -5 7 0 12 6 13 5 3 -5 -16 -17
-26 -9 -17 14 8 20 37 21 54 1z m134 -54 c3 -4 -1 -8 -9 -8 -8 0 -13 2 -10 5
5 5 -20 32 -30 32 -3 0 -3 -4 0 -10 3 -5 2 -10 -3 -10 -10 0 -22 22 -28 48 -2
11 70 -39 80 -57z m-347 46 c6 -4 15 -3 18 3 4 7 12 7 18 2 7 -4 22 -7 34 -6
24 1 39 -21 21 -32 -7 -5 -8 -2 -3 6 6 10 4 12 -9 7 -10 -4 -15 -3 -11 3 3 6
2 10 -4 10 -5 0 -11 -5 -13 -12 -2 -6 -12 -12 -21 -14 -9 -1 -15 2 -11 7 3 5
1 9 -4 9 -10 0 -26 -29 -24 -42 1 -5 -2 -8 -8 -8 -5 0 -10 4 -10 9 0 6 5 13
10 16 15 9 12 25 -6 25 -8 0 -12 -4 -9 -10 6 -9 -8 -14 -27 -11 -5 0 -8 -4 -8
-10 0 -8 -5 -7 -15 1 -11 10 -19 10 -27 2 -6 -6 -17 -8 -25 -5 -7 3 -13 2 -12
-3 4 -21 -2 -25 -18 -13 -9 8 -18 13 -20 12 -1 -2 -3 -1 -3 2 0 3 3 6 8 6 4 1
18 10 31 20 16 13 28 16 36 9 6 -5 15 -7 18 -3 4 3 7 1 7 -5 0 -7 5 -12 10
-12 6 0 9 4 8 9 -4 12 32 39 46 37 6 -1 16 -5 23 -9z m258 -17 c3 -6 -1 -7 -9
-4 -18 7 -21 14 -7 14 6 0 13 -4 16 -10z m220 -10 c3 -6 -1 -7 -9 -4 -18 7
-21 14 -7 14 6 0 13 -4 16 -10z m-311 -9 c4 -5 -3 -7 -14 -4 -23 6 -26 13 -6
13 8 0 17 -4 20 -9z m-94 -10 c0 -5 -8 -15 -17 -22 -16 -12 -17 -12 -6 2 7 9
10 19 6 22 -3 4 -1 7 5 7 7 0 12 -4 12 -9z m45 -1 c-3 -5 -12 -10 -18 -10 -7
0 -6 4 3 10 19 12 23 12 15 0z m-205 -18 c0 -5 -7 -9 -15 -9 -8 0 -12 4 -9 9
3 4 9 8 15 8 5 0 9 -4 9 -8z m44 0 c3 -5 -1 -9 -9 -9 -8 0 -12 4 -9 9 3 4 7 8
9 8 2 0 6 -4 9 -8z m456 -2 c0 -5 -2 -10 -4 -10 -3 0 -8 5 -11 10 -3 6 -1 10
4 10 6 0 11 -4 11 -10z m-565 -28 c-3 -3 -11 0 -18 7 -9 10 -8 11 6 5 10 -3
15 -9 12 -12z m645 8 c0 -5 -5 -10 -11 -10 -5 0 -7 5 -4 10 3 6 8 10 11 10 2
0 4 -4 4 -10z m44 -38 c3 -5 -1 -9 -9 -9 -8 0 -12 4 -9 9 3 4 7 8 9 8 2 0 6
-4 9 -8z m72 -7 c-1 -8 -5 -17 -8 -21 -5 -4 -4 16 1 34 3 9 9 -1 7 -13z m-42
-21 c3 -8 2 -12 -4 -9 -6 3 -10 10 -10 16 0 14 7 11 14 -7z m-874 -14 c0 -5
-2 -10 -4 -10 -3 0 -8 5 -11 10 -3 6 -1 10 4 10 6 0 11 -4 11 -10z m1000 6 c0
-3 -4 -8 -10 -11 -5 -3 -10 -1 -10 4 0 6 5 11 10 11 6 0 10 -2 10 -4z m-1077
-19 c3 -8 -1 -14 -8 -14 -7 0 -11 6 -8 14 3 7 6 13 8 13 2 0 5 -6 8 -13z
m1107 -1 c0 -2 -9 -6 -20 -9 -11 -3 -18 -1 -14 4 5 9 34 13 34 5z m-1209 -29
c-7 -7 -7 -15 2 -26 8 -10 8 -13 0 -8 -6 4 -13 4 -16 0 -2 -5 -2 -3 -1 4 2 7
-1 15 -5 18 -11 6 -23 -23 -16 -36 4 -5 -2 -6 -11 -2 -13 5 -15 3 -9 -8 8 -12
6 -12 -8 0 -16 13 -14 36 3 26 4 -3 15 6 23 18 8 13 23 24 31 24 11 0 13 -4 7
-10z m4 -57 c-3 -5 -12 -10 -18 -10 -7 0 -6 4 3 10 19 12 23 12 15 0z m1334
-13 c0 -9 -2 -8 -6 1 -2 6 -10 9 -15 6 -7 -4 -8 -2 -4 5 9 13 26 5 25 -12z
m79 2 c31 -24 36 -44 14 -61 -16 -12 -16 -11 -2 6 14 18 13 19 -2 13 -10 -3
-27 2 -40 13 -21 17 -22 19 -5 26 15 5 16 9 5 15 -7 5 -9 9 -5 9 5 0 21 -9 35
-21z m-67 -36 c13 -16 12 -17 -3 -4 -17 13 -22 21 -14 21 2 0 10 -8 17 -17z
m-1458 -47 c7 4 9 3 4 -1 -4 -5 -16 -9 -26 -10 -13 -1 -17 4 -13 18 4 17 6 18
14 3 5 -9 15 -13 21 -10z m1552 -26 c3 -6 -1 -7 -9 -4 -18 7 -21 14 -7 14 6 0
13 -4 16 -10z m-1565 -16 c0 -8 -19 -13 -24 -6 -3 5 1 9 9 9 8 0 15 -2 15 -3z
m1610 -9 c0 -2 -6 -5 -13 -8 -8 -3 -14 1 -14 8 0 7 6 11 14 8 7 -3 13 -6 13
-8z m-1697 -44 c-12 -10 -19 -22 -15 -26 4 -4 -3 -3 -14 3 -12 6 -24 8 -28 5
-4 -4 3 -12 15 -18 19 -11 19 -13 5 -18 -10 -4 -15 -3 -11 3 3 6 2 10 -3 10
-17 0 -21 -13 -10 -34 9 -18 9 -19 -3 -6 -8 8 -20 20 -27 26 -19 18 23 67 47
54 13 -6 24 -5 37 5 28 21 33 18 7 -4z m1732 -9 c-3 -3 -11 0 -18 7 -9 10 -8
11 6 5 10 -3 15 -9 12 -12z m-1811 -120 c3 -5 -1 -9 -9 -9 -8 0 -15 4 -15 9 0
4 4 8 9 8 6 0 12 -4 15 -8z m1999 -99 c-3 -7 -9 -13 -14 -13 -5 0 -9 -5 -9
-11 0 -5 4 -7 10 -4 6 4 7 -1 3 -11 -5 -13 -3 -15 8 -9 8 4 11 5 7 0 -4 -4 -1
-17 7 -29 21 -28 19 -33 -11 -33 -14 0 -22 2 -18 6 13 9 11 38 -4 53 -6 6 -12
18 -12 25 0 7 -6 13 -12 13 -9 0 -8 3 2 9 8 6 17 8 21 5 4 -2 10 0 13 5 4 5
-7 7 -23 5 -16 -3 -32 0 -36 7 -5 7 -1 9 11 5 11 -3 26 -1 34 4 17 10 31 -6
23 -27z m-76 0 c-4 -3 -1 -13 6 -22 11 -14 10 -14 -5 -2 -16 12 -16 31 -1 31
4 0 3 -3 0 -7z m-2058 -70 c1 -10 2 -28 2 -41 1 -20 3 -21 18 -10 13 10 13 9
-2 -8 -9 -11 -14 -24 -10 -28 4 -4 -1 -4 -12 0 -16 6 -18 5 -7 -7 6 -7 12 -18
12 -23 0 -6 -5 -4 -10 4 -8 13 -10 12 -10 -2 0 -10 -4 -18 -10 -18 -5 0 -7 6
-4 14 3 8 1 17 -5 21 -16 9 -13 28 3 22 15 -6 31 19 17 27 -7 5 -8 26 -2 59 2
14 18 7 20 -10z m2107 -1 c1 -7 0 -8 -3 -2 -2 5 -9 8 -14 4 -5 -3 -9 0 -9 6 0
15 23 7 26 -8z m-2045 -29 c13 -16 12 -17 -3 -4 -10 7 -18 15 -18 17 0 8 8 3
21 -13z m2117 -38 c3 -3 2 -8 -3 -12 -4 -5 -10 -2 -12 5 -4 10 -10 9 -26 -5
-17 -14 -19 -14 -9 -1 10 13 10 17 0 22 -7 3 0 3 16 1 16 -2 31 -7 34 -10z
m-2123 -4 c-9 -8 -36 -10 -30 -2 2 4 11 8 20 8 8 0 13 -3 10 -6z m2081 -57 c1
-9 0 -13 -4 -10 -3 4 -7 14 -8 22 -1 9 0 13 4 10 3 -4 7 -14 8 -22z m-2121
-14 c3 -6 -1 -7 -9 -4 -18 7 -21 14 -7 14 6 0 13 -4 16 -10z m-37 -25 c0 -14
-5 -28 -9 -31 -5 -3 -7 -10 -4 -15 4 -5 1 -9 -5 -9 -6 0 -9 -4 -5 -10 3 -5 13
-6 23 -3 9 3 14 3 11 -1 -4 -4 -16 -8 -27 -11 -17 -3 -20 1 -16 20 2 13 0 27
-6 30 -6 4 -8 11 -4 16 3 5 10 6 16 3 7 -5 9 -2 5 8 -3 9 -3 19 0 22 13 12 21
5 21 -19z m2192 21 c0 -2 -7 -9 -15 -16 -13 -11 -14 -10 -9 4 5 14 24 23 24
12z m-2174 -121 c-1 -8 -6 -18 -11 -22 -4 -4 -5 -2 -1 5 4 7 2 12 -6 12 -9 0
-9 3 2 10 19 12 19 13 16 -5z m28 -23 c3 -5 -1 -9 -9 -9 -8 0 -12 4 -9 9 3 4
7 8 9 8 2 0 6 -4 9 -8z m-49 -72 c13 -6 15 -9 5 -9 -8 0 -22 4 -30 9 -18 12
-2 12 25 0z m2165 -4 c0 -3 -4 -8 -10 -11 -5 -3 -10 -1 -10 4 0 6 5 11 10 11
6 0 10 -2 10 -4z m-2169 -21 c3 2 6 -6 6 -18 2 -16 0 -18 -7 -8 -4 8 -17 16
-27 17 -17 3 -17 2 0 -10 9 -7 17 -18 17 -25 0 -6 5 -11 10 -11 6 0 10 -6 10
-12 -1 -7 -10 -2 -22 12 -11 14 -24 24 -28 23 -11 -3 -8 31 4 39 6 4 15 3 22
-2 6 -6 13 -8 15 -5z m54 -25 c3 -6 -1 -7 -9 -4 -18 7 -21 14 -7 14 6 0 13 -4
16 -10z m2135 -14 c0 -3 -4 -8 -10 -11 -5 -3 -10 -1 -10 4 0 6 5 11 10 11 6 0
10 -2 10 -4z m-2140 -46 c0 -5 -4 -10 -10 -10 -5 0 -10 5 -10 10 0 6 5 10 10
10 6 0 10 -4 10 -10z m-73 -45 c0 -8 -4 -12 -9 -9 -5 3 -6 10 -3 15 9 13 12
11 12 -6z m43 -15 c0 -5 -7 -10 -15 -10 -8 0 -15 -5 -15 -11 0 -5 4 -8 9 -4 6
3 15 -4 21 -16 7 -13 8 -19 2 -15 -6 3 -14 2 -17 -4 -5 -8 -11 -7 -21 1 -19
15 -18 25 6 49 22 22 30 25 30 10z m2165 0 c3 -5 1 -10 -4 -10 -6 0 -11 5 -11
10 0 6 2 10 4 10 3 0 8 -4 11 -10z m-35 -34 c0 -3 -4 -8 -10 -11 -5 -3 -10 -1
-10 4 0 6 5 11 10 11 6 0 10 -2 10 -4z m-2125 -46 c-3 -5 -11 -10 -16 -10 -6
0 -7 5 -4 10 3 6 11 10 16 10 6 0 7 -4 4 -10z m2189 -4 c15 -5 16 -9 6 -21 -6
-8 -8 -20 -4 -27 4 -7 4 -10 -1 -6 -14 13 -35 -25 -23 -40 8 -9 6 -18 -8 -33
-10 -11 -19 -27 -20 -36 -2 -9 -10 -20 -19 -25 -8 -5 -13 -14 -9 -19 3 -5 1
-15 -4 -22 -6 -7 -10 -16 -10 -22 -1 -5 -9 -15 -19 -22 -16 -11 -18 -9 -18 11
0 13 4 22 8 19 10 -6 37 16 37 30 0 7 -4 7 -12 -1 -7 -7 -17 -12 -22 -12 -6 0
-3 5 7 11 9 6 14 15 11 21 -4 6 -2 8 4 4 6 -3 13 -2 17 4 3 6 -4 10 -17 11
-23 1 -22 1 2 8 17 5 25 14 24 28 -1 16 4 20 18 18 12 -3 18 1 15 8 -2 7 -13
11 -23 9 -18 -3 -18 -3 1 13 19 16 19 16 1 10 -19 -6 -19 -5 -3 13 9 10 14 22
10 26 -5 4 -3 7 2 6 20 -4 30 1 17 8 -12 8 -6 45 7 38 3 -1 14 -6 25 -10z
m-54 -12 c0 -8 -19 -13 -24 -6 -3 5 1 9 9 9 8 0 15 -2 15 -3z m-2067 -117 c4
3 7 4 7 0 0 -18 -21 -14 -30 5 -10 21 -10 21 3 6 8 -10 17 -15 20 -11z m1998
-64 c13 -16 12 -17 -3 -4 -17 13 -22 21 -14 21 2 0 10 -8 17 -17z m-21 -43 c0
-5 -5 -10 -11 -10 -5 0 -7 5 -4 10 3 6 8 10 11 10 2 0 4 -4 4 -10z m-1927 -30
c3 -11 1 -18 -4 -14 -5 3 -9 12 -9 20 0 20 7 17 13 -6z m13 -42 c4 4 2 -2 -6
-12 -14 -18 -13 -19 3 -13 9 3 17 3 17 -2 0 -13 -36 -20 -51 -11 -10 7 -10 11
0 24 7 8 10 21 6 28 -4 7 0 5 8 -4 8 -10 18 -14 23 -10z m11 -67 c-1 -15 -4
-17 -14 -9 -7 5 -10 14 -7 19 10 16 23 9 21 -10z m1838 -9 c-3 -3 -11 0 -18 7
-9 10 -8 11 6 5 10 -3 15 -9 12 -12z m-1782 -74 c-30 -31 -42 -35 -39 -13 3
18 33 42 53 42 8 0 4 -11 -14 -29z m42 -18 c-3 -5 -2 -10 2 -10 5 0 18 -7 29
-15 17 -14 15 -14 -13 0 -38 18 -45 5 -8 -15 14 -7 23 -15 20 -18 -2 -3 -11 1
-20 8 -8 7 -15 9 -15 6 0 -4 -10 -1 -22 5 l-21 11 24 19 c27 21 33 23 24 9z
m1583 -45 c-3 -3 -9 2 -12 12 -6 14 -5 15 5 6 7 -7 10 -15 7 -18z m-1511 -27
c-3 -8 -6 -5 -6 6 -1 11 2 17 5 13 3 -3 4 -12 1 -19z m33 -3 c14 -19 14 -19
-2 -6 -10 7 -18 18 -18 24 0 6 1 8 3 6 1 -2 9 -13 17 -24z m1475 6 c3 -5 2
-12 -3 -15 -5 -3 -9 1 -9 9 0 17 3 19 12 6z m48 -18 c11 4 14 1 10 -9 -3 -8
-8 -12 -11 -10 -3 3 -11 1 -18 -5 -15 -13 -26 3 -18 26 5 12 9 13 14 4 5 -6
15 -9 23 -6z m-1529 -11 c3 -5 -1 -9 -9 -9 -8 0 -15 4 -15 9 0 4 4 8 9 8 6 0
12 -4 15 -8z m1450 0 c3 -5 -1 -9 -9 -9 -8 0 -15 4 -15 9 0 4 4 8 9 8 6 0 12
-4 15 -8z m-1369 -21 c3 -5 2 -12 -3 -15 -5 -3 -9 1 -9 9 0 17 3 19 12 6z
m-70 -10 c7 -12 -12 -24 -25 -16 -11 7 -4 25 10 25 5 0 11 -4 15 -9z m1332
-36 c0 -8 -4 -12 -9 -9 -5 3 -6 10 -3 15 9 13 12 11 12 -6z m-1210 -48 c10 3
15 3 11 -1 -10 -12 -42 -14 -54 -5 -6 5 -9 21 -6 35 l5 26 13 -31 c10 -23 17
-29 31 -24z m33 8 c0 -5 -5 -3 -10 5 -5 8 -10 20 -10 25 0 6 5 3 10 -5 5 -8
10 -19 10 -25z m15 -15 c-3 -5 -12 -10 -18 -10 -7 0 -6 4 3 10 19 12 23 12 15
0z m1112 -12 c-3 -8 -6 -5 -6 6 -1 11 2 17 5 13 3 -3 4 -12 1 -19z m-47 -8 c0
-5 -8 -10 -17 -10 -15 0 -16 2 -3 10 19 12 20 12 20 0z m-956 -19 c12 -13 14
-21 6 -26 -6 -4 -9 -1 -8 7 2 7 -2 12 -8 11 -6 -1 -11 5 -11 13 0 18 0 18 21
-5z m875 6 c-2 -1 -13 -9 -24 -17 -19 -14 -19 -14 -6 3 7 9 18 17 24 17 6 0 8
-1 6 -3z m-834 -47 c3 -5 1 -10 -5 -10 -7 0 -10 -6 -7 -13 3 -8 -1 -14 -8 -14
-10 0 -11 5 -5 17 5 10 6 20 3 24 -3 3 -1 6 5 6 6 0 14 -4 17 -10z m747 -22
c-8 -8 -9 -4 -5 13 4 13 8 18 11 10 2 -7 -1 -18 -6 -23z m-671 -6 c-7 -2 -18
1 -23 6 -8 8 -4 9 13 5 13 -4 18 -8 10 -11z m599 8 c0 -5 -5 -10 -11 -10 -5 0
-7 5 -4 10 3 6 8 10 11 10 2 0 4 -4 4 -10z m-520 -21 c0 -5 -4 -9 -8 -9 -5 0
-9 7 -9 15 0 8 4 12 9 9 4 -3 8 -9 8 -15z m485 1 c-3 -5 -12 -10 -18 -10 -7 0
-6 4 3 10 19 12 23 12 15 0z m-131 -18 c3 -5 -1 -9 -9 -9 -8 0 -12 4 -9 9 3 4
7 8 9 8 2 0 6 -4 9 -8z m-434 -16 c0 -11 -19 -15 -25 -6 -3 5 1 10 9 10 9 0
16 -2 16 -4z m376 -5 c-2 -3 7 -14 19 -24 17 -12 26 -14 31 -5 4 6 3 8 -2 5
-6 -3 -16 4 -24 16 -12 20 -12 21 3 9 9 -8 20 -11 25 -9 4 3 8 -5 8 -17 0 -20
-5 -23 -35 -21 -23 1 -35 7 -33 15 1 6 -2 18 -7 24 -8 9 -7 13 4 13 8 0 13 -3
11 -6z m-84 -34 c-7 -8 -9 -17 -5 -20 3 -4 1 -7 -5 -7 -7 0 -10 10 -8 23 3 12
5 26 5 32 1 5 6 4 13 -3 8 -8 8 -15 0 -25z m-92 -1 c0 -3 -4 -8 -10 -11 -5 -3
-10 -1 -10 4 0 6 5 11 10 11 6 0 10 -2 10 -4z"/>
<path d="M1087 2416 c-10 -8 -14 -16 -10 -19 5 -3 14 3 21 14 14 22 13 23 -11
5z"/>
<path d="M1160 2421 c0 -6 4 -13 10 -16 6 -3 7 1 4 9 -7 18 -14 21 -14 7z"/>
<path d="M989 2392 c-15 -13 -19 -21 -10 -26 7 -5 10 -2 9 6 -2 7 5 13 14 13
21 0 32 11 20 19 -6 3 -20 -2 -33 -12z"/>
<path d="M2041 2141 c-11 -7 -10 -11 7 -20 14 -7 23 -8 27 -1 3 5 -1 10 -10
10 -9 0 -13 5 -10 10 8 12 4 12 -14 1z"/>
<path d="M373 1958 c-11 -19 -13 -39 -1 -32 5 3 7 9 4 12 -3 3 -1 11 5 19 6 7
9 13 6 13 -3 0 -9 -6 -14 -12z"/>
<path d="M2360 1661 c0 -6 4 -13 10 -16 6 -3 7 1 4 9 -7 18 -14 21 -14 7z"/>
<path d="M213 1645 c0 -8 4 -15 9 -15 4 0 8 4 8 9 0 6 -4 12 -8 15 -5 3 -9 -1
-9 -9z"/>
<path d="M176 1478 c3 -5 10 -6 15 -3 13 9 11 12 -6 12 -8 0 -12 -4 -9 -9z"/>
<path d="M187 1093 c3 -7 9 -10 14 -7 14 8 11 21 -5 21 -8 0 -12 -6 -9 -14z"/>
<path d="M2389 1037 c7 -7 14 -8 21 -1 6 6 2 10 -12 11 -16 2 -18 -1 -9 -10z"/>
<path d="M2380 1005 c-7 -9 -10 -18 -7 -21 3 -3 10 4 17 15 13 25 8 27 -10 6z"/>
<path d="M325 731 c-3 -5 -2 -12 3 -15 5 -3 9 1 9 9 0 17 -3 19 -12 6z"/>
<path d="M409 603 c-13 -16 -12 -17 4 -4 9 7 17 15 17 17 0 8 -8 3 -21 -13z"/>
<path d="M1504 2459 c-4 -8 -3 -9 4 -5 15 9 15 -9 0 -37 -10 -19 -9 -20 4 -10
12 11 18 9 33 -7 10 -11 21 -17 26 -15 4 3 12 -2 17 -11 5 -10 12 -12 15 -6 4
5 -8 17 -26 26 -17 8 -26 16 -19 16 6 0 12 5 12 11 0 8 -4 9 -13 0 -16 -13
-27 -5 -27 20 0 22 -16 33 -26 18z"/>
<path d="M935 2409 c-4 -6 -14 -8 -24 -4 -13 5 -14 4 -3 -6 10 -11 15 -10 29
4 10 9 14 17 11 17 -4 0 -10 -5 -13 -11z"/>
<path d="M1668 2413 c7 -3 16 -2 19 1 4 3 -2 6 -13 5 -11 0 -14 -3 -6 -6z"/>
<path d="M1716 2395 c4 -8 8 -15 10 -15 2 0 4 7 4 15 0 8 -4 15 -10 15 -5 0
-7 -7 -4 -15z"/>
<path d="M1753 2395 c0 -8 4 -12 9 -9 5 3 6 10 3 15 -9 13 -12 11 -12 -6z"/>
<path d="M776 2378 c2 -4 14 -5 26 -3 32 7 32 13 -1 11 -16 0 -27 -4 -25 -8z"/>
<path d="M1682 2345 c6 -13 15 -22 19 -19 9 5 -11 44 -23 44 -4 0 -3 -11 4
-25z"/>
<path d="M1795 2360 c3 -5 8 -10 11 -10 2 0 4 5 4 10 0 6 -5 10 -11 10 -5 0
-7 -4 -4 -10z"/>
<path d="M1825 2359 c-4 -6 -5 -12 -2 -15 2 -3 7 2 10 11 7 17 1 20 -8 4z"/>
<path d="M1765 2350 c3 -6 0 -10 -7 -10 -7 0 -2 -7 10 -16 13 -9 26 -13 29
-10 4 4 19 -5 33 -19 25 -24 28 -25 34 -8 4 10 3 19 -3 21 -5 2 -7 11 -4 20 4
15 3 15 -6 2 -6 -8 -11 -10 -11 -5 0 6 -5 3 -10 -5 -6 -10 -10 -11 -10 -2 0 6
-7 12 -15 12 -8 0 -15 4 -15 9 0 5 -7 12 -16 15 -8 3 -12 2 -9 -4z m90 -50 c3
-5 2 -10 -4 -10 -5 0 -13 5 -16 10 -3 6 -2 10 4 10 5 0 13 -4 16 -10z"/>
<path d="M1890 2339 c0 -5 5 -7 10 -4 6 3 10 8 10 11 0 2 -4 4 -10 4 -5 0 -10
-5 -10 -11z"/>
<path d="M679 2328 c-5 -18 -6 -38 -1 -34 7 8 12 36 6 36 -2 0 -4 -1 -5 -2z"/>
<path d="M1885 2290 c-18 -20 -18 -22 -3 -31 10 -5 15 -16 12 -23 -6 -15 12
-16 32 -4 6 4 22 -4 35 -18 26 -28 60 -50 58 -37 -1 4 0 10 1 13 8 22 6 42 -6
47 -8 3 -12 9 -9 13 3 5 1 11 -4 14 -12 8 -7 -24 5 -32 14 -10 11 -35 -5 -40
-8 -3 -11 0 -7 6 3 6 -1 18 -10 26 -9 9 -14 22 -11 29 3 8 -4 13 -17 14 -11 0
-15 -1 -8 -4 6 -3 12 -11 12 -20 0 -12 -2 -12 -16 1 -17 18 -28 21 -19 6 3 -5
3 -10 -2 -10 -10 0 -32 47 -25 54 3 3 10 -2 17 -11 10 -13 13 -14 20 -2 5 8 5
11 0 7 -4 -4 -13 -1 -19 8 -10 14 -14 13 -31 -6z m96 -77 c13 -16 12 -17 -3
-4 -10 7 -18 15 -18 17 0 8 8 3 21 -13z"/>
<path d="M630 2260 c0 -5 5 -10 10 -10 6 0 10 5 10 10 0 6 -4 10 -10 10 -5 0
-10 -4 -10 -10z"/>
<path d="M530 2226 c0 -13 37 -24 51 -15 12 9 12 10 -1 6 -8 -2 -23 0 -32 5
-10 5 -18 6 -18 4z"/>
<path d="M510 2165 c0 -8 4 -15 10 -15 5 0 7 7 4 15 -4 8 -8 15 -10 15 -2 0
-4 -7 -4 -15z"/>
<path d="M2100 2166 c0 -2 8 -10 18 -17 15 -13 16 -12 3 4 -13 16 -21 21 -21
13z"/>
<path d="M439 2113 c-13 -17 -13 -17 6 -3 11 8 22 16 24 17 2 2 0 3 -6 3 -6 0
-17 -8 -24 -17z"/>
<path d="M396 2101 c-3 -5 2 -15 12 -22 15 -12 16 -12 5 2 -7 9 -10 19 -6 22
3 4 4 7 0 7 -3 0 -8 -4 -11 -9z"/>
<path d="M459 2105 c-1 -3 -3 -9 -4 -15 -1 -5 -3 -15 -4 -22 0 -6 -4 -8 -8 -5
-3 4 -17 -9 -31 -29 -13 -19 -21 -38 -18 -41 3 -4 6 0 6 8 0 11 2 11 10 -1 7
-11 10 -11 10 -2 0 7 4 11 9 8 4 -3 7 6 5 19 -2 22 5 29 27 27 3 0 10 8 17 19
7 10 9 19 5 18 -20 -3 -27 2 -13 11 10 6 11 10 3 10 -7 0 -14 -2 -14 -5z"/>
<path d="M2170 2100 c0 -5 5 -10 11 -10 5 0 7 5 4 10 -3 6 -8 10 -11 10 -2 0
-4 -4 -4 -10z"/>
<path d="M376 2062 c-3 -4 4 -9 15 -9 23 -2 25 3 4 10 -8 4 -16 3 -19 -1z"/>
<path d="M2188 2053 c7 -3 16 -2 19 1 4 3 -2 6 -13 5 -11 0 -14 -3 -6 -6z"/>
<path d="M2226 1984 c6 -16 5 -17 -7 -6 -7 6 -18 12 -23 12 -6 0 -3 -5 6 -11
13 -7 17 -19 13 -45 -4 -32 -3 -34 11 -23 14 11 18 10 30 -6 7 -11 18 -25 23
-31 6 -7 6 -15 -1 -22 -7 -7 -5 -10 8 -8 20 3 32 26 14 26 -9 0 -9 5 1 17 10
11 10 14 2 9 -12 -6 -18 5 -14 27 0 4 -3 7 -9 7 -5 0 -10 -5 -10 -11 0 -5 -5
-7 -10 -4 -8 5 -7 12 2 23 11 13 11 14 -1 7 -11 -6 -13 -2 -9 19 3 15 3 24 0
21 -3 -2 -11 0 -19 7 -11 9 -12 7 -7 -8z m10 -29 c-3 -8 0 -15 6 -15 6 0 9 -3
5 -6 -10 -11 -26 6 -20 21 3 8 7 15 10 15 3 0 3 -7 -1 -15z m48 -61 c3 -8 2
-12 -4 -9 -6 3 -10 10 -10 16 0 14 7 11 14 -7z"/>
<path d="M316 1955 c-9 -26 -7 -32 5 -12 6 10 9 21 6 23 -2 3 -7 -2 -11 -11z"/>
<path d="M2300 1926 c0 -2 8 -10 18 -17 15 -13 16 -12 3 4 -13 16 -21 21 -21
13z"/>
<path d="M250 1886 c0 -2 7 -7 16 -10 8 -3 12 -2 9 4 -6 10 -25 14 -25 6z"/>
<path d="M2355 1881 c-3 -5 -2 -12 3 -15 5 -3 9 1 9 9 0 17 -3 19 -12 6z"/>
<path d="M2348 1813 c7 -3 16 -2 19 1 4 3 -2 6 -13 5 -11 0 -14 -3 -6 -6z"/>
<path d="M225 1800 c-3 -5 -1 -10 4 -10 6 0 11 5 11 10 0 6 -2 10 -4 10 -3 0
-8 -4 -11 -10z"/>
<path d="M2393 1775 c0 -8 4 -12 9 -9 4 3 8 9 8 15 0 5 -4 9 -8 9 -5 0 -9 -7
-9 -15z"/>
<path d="M285 1770 c-3 -5 -1 -10 4 -10 6 0 11 5 11 10 0 6 -2 10 -4 10 -3 0
-8 -4 -11 -10z"/>
<path d="M198 1733 c7 -3 16 -2 19 1 4 3 -2 6 -13 5 -11 0 -14 -3 -6 -6z"/>
<path d="M2380 1726 c0 -2 7 -7 16 -10 8 -3 12 -2 9 4 -6 10 -25 14 -25 6z"/>
<path d="M153 1625 c0 -8 4 -15 9 -15 4 0 8 4 8 9 0 6 -4 12 -8 15 -5 3 -9 -1
-9 -9z"/>
<path d="M2456 1533 c-6 -14 -5 -15 5 -6 7 7 10 15 7 18 -3 3 -9 -2 -12 -12z"/>
<path d="M142 1520 c0 -14 2 -19 5 -12 2 6 2 18 0 25 -3 6 -5 1 -5 -13z"/>
<path d="M2470 1460 c0 -5 5 -10 11 -10 5 0 7 5 4 10 -3 6 -8 10 -11 10 -2 0
-4 -4 -4 -10z"/>
<path d="M2405 1400 c-3 -5 -1 -10 4 -10 6 0 11 5 11 10 0 6 -2 10 -4 10 -3 0
-8 -4 -11 -10z"/>
<path d="M90 1379 c0 -5 5 -7 10 -4 6 3 10 8 10 11 0 2 -4 4 -10 4 -5 0 -10
-5 -10 -11z"/>
<path d="M2430 1321 c0 -5 7 -12 16 -15 24 -9 27 -7 10 9 -17 17 -26 19 -26 6z"/>
<path d="M113 1295 c0 -8 4 -12 9 -9 5 3 6 10 3 15 -9 13 -12 11 -12 -6z"/>
<path d="M136 1174 c-9 -24 -2 -26 12 -4 7 11 8 20 3 20 -5 0 -12 -7 -15 -16z"/>
<path d="M107 1119 c7 -7 15 -10 18 -7 3 3 -2 9 -12 12 -14 6 -15 5 -6 -5z"/>
<path d="M2397 1113 c-10 -9 -9 -23 1 -23 5 0 9 7 9 15 0 17 -1 18 -10 8z"/>
<path d="M2475 1089 c-4 -6 -5 -12 -2 -15 2 -3 7 2 10 11 7 17 1 20 -8 4z"/>
<path d="M158 1063 c6 -2 12 -12 12 -22 0 -9 9 -27 19 -38 21 -22 17 -40 -4
-23 -9 7 -16 5 -26 -7 -11 -15 -11 -16 1 -6 11 10 17 9 32 -4 17 -15 17 -17 1
-37 -10 -12 -11 -15 -3 -8 17 14 34 16 25 2 -3 -5 -1 -10 5 -10 6 0 9 -4 5 -9
-10 -17 12 -21 25 -6 12 14 7 20 -14 16 -5 -1 -6 5 -2 14 3 9 -1 18 -9 22 -12
4 -13 9 -5 18 7 9 7 15 1 19 -5 4 -8 16 -6 27 3 17 1 18 -9 10 -11 -9 -16 -5
-24 19 -6 16 -17 30 -24 29 -10 0 -10 -2 0 -6z"/>
<path d="M153 1005 c0 -8 4 -12 9 -9 5 3 6 10 3 15 -9 13 -12 11 -12 -6z"/>
<path d="M2455 980 c3 -5 8 -10 11 -10 2 0 4 5 4 10 0 6 -5 10 -11 10 -5 0 -7
-4 -4 -10z"/>
<path d="M170 939 c0 -5 5 -7 10 -4 6 3 10 8 10 11 0 2 -4 4 -10 4 -5 0 -10
-5 -10 -11z"/>
<path d="M202 883 c8 -10 14 -28 13 -40 -1 -14 3 -19 12 -16 15 6 18 23 3 23
-5 0 -9 3 -8 8 2 13 -14 42 -25 42 -5 0 -3 -8 5 -17z"/>
<path d="M287 814 c-6 -10 9 -42 16 -34 3 3 1 14 -3 24 -3 11 -9 15 -13 10z"/>
<path d="M2324 765 c-4 -9 -18 -23 -33 -31 -14 -8 -18 -13 -9 -10 19 5 42 -16
30 -29 -4 -5 -1 -5 6 -1 10 6 10 11 2 21 -9 10 -7 20 5 39 10 14 14 26 11 26
-4 0 -9 -7 -12 -15z"/>
<path d="M280 760 c0 -5 5 -10 10 -10 6 0 10 5 10 10 0 6 -4 10 -10 10 -5 0
-10 -4 -10 -10z"/>
<path d="M256 693 c-6 -14 -5 -15 5 -6 7 7 10 15 7 18 -3 3 -9 -2 -12 -12z"/>
<path d="M2286 693 c-6 -14 -5 -15 5 -6 7 7 10 15 7 18 -3 3 -9 -2 -12 -12z"/>
<path d="M2239 685 c-1 -3 -2 -10 -3 -15 -1 -12 -27 -30 -36 -25 -3 2 -6 -5
-6 -16 0 -10 6 -19 13 -19 8 0 10 7 6 18 -6 15 -5 15 10 4 9 -8 22 -12 29 -9
8 4 7 6 -4 6 -10 1 -18 6 -18 12 0 5 5 7 10 4 6 -4 9 -1 8 6 -2 6 3 14 11 17
8 3 11 0 7 -7 -5 -7 -1 -9 9 -5 18 7 18 7 -12 23 -13 6 -24 9 -24 6z"/>
<path d="M313 657 c0 -7 9 -13 19 -13 10 0 18 1 18 3 0 1 -8 7 -18 12 -13 7
-19 6 -19 -2z"/>
<path d="M270 656 c0 -2 8 -10 18 -17 15 -13 16 -12 3 4 -13 16 -21 21 -21 13z"/>
<path d="M2279 633 c-13 -16 -12 -17 4 -4 9 7 17 15 17 17 0 8 -8 3 -21 -13z"/>
<path d="M386 542 c-3 -5 1 -9 9 -9 8 0 12 4 9 9 -3 4 -7 8 -9 8 -2 0 -6 -4
-9 -8z"/>
<path d="M426 498 c3 -4 11 -5 19 -1 21 7 19 12 -4 10 -11 0 -18 -5 -15 -9z"/>
<path d="M2140 486 c0 -2 8 -10 18 -17 15 -13 16 -12 3 4 -13 16 -21 21 -21
13z"/>
<path d="M2115 461 c-3 -5 -2 -12 3 -15 5 -3 9 1 9 9 0 17 -3 19 -12 6z"/>
<path d="M513 415 c0 -8 4 -12 9 -9 5 3 6 10 3 15 -9 13 -12 11 -12 -6z"/>
<path d="M1970 402 c0 -8 -5 -10 -12 -6 -7 4 -10 4 -6 -1 10 -10 -11 -37 -22
-30 -5 3 -12 0 -16 -6 -4 -7 -3 -9 4 -5 6 3 15 -2 21 -11 6 -10 11 -13 11 -6
0 7 6 11 13 9 6 -1 8 -1 4 2 -5 2 -1 13 9 23 14 15 20 17 33 7 9 -7 12 -8 8
-3 -4 5 3 15 15 21 l23 13 -22 -2 c-13 -1 -23 -5 -23 -9 0 -11 -23 -6 -32 7
-5 6 -8 5 -8 -3z m10 -15 c0 -2 -10 -12 -22 -23 l-23 -19 19 23 c18 21 26 27
26 19z"/>
<path d="M2050 379 c0 -5 5 -7 10 -4 6 3 10 8 10 11 0 2 -4 4 -10 4 -5 0 -10
-5 -10 -11z"/>
<path d="M1990 360 c0 -5 5 -10 11 -10 5 0 7 5 4 10 -3 6 -8 10 -11 10 -2 0
-4 -4 -4 -10z"/>
<path d="M694 328 c-4 -7 -4 -10 0 -6 4 3 18 -3 31 -14 13 -11 25 -18 27 -17
2 2 14 -6 27 -18 13 -12 29 -19 34 -16 6 4 8 0 4 -10 -3 -10 -3 -17 2 -17 12
0 20 35 11 50 -4 6 -13 12 -21 13 -8 2 -20 6 -26 10 -7 5 -13 5 -13 1 0 -4 -9
1 -20 11 -11 10 -20 15 -20 10 0 -4 -6 -2 -14 4 -11 9 -16 9 -22 -1z m57 -25
c13 -16 12 -17 -3 -4 -17 13 -22 21 -14 21 2 0 10 -8 17 -17z m51 -18 c3 3 10
-1 16 -8 9 -10 8 -14 -3 -14 -8 0 -23 10 -32 21 -14 15 -14 18 -2 8 9 -6 18
-10 21 -7z"/>
<path d="M1966 318 c3 -5 10 -6 15 -3 13 9 11 12 -6 12 -8 0 -12 -4 -9 -9z"/>
<path d="M710 290 c0 -5 5 -10 11 -10 5 0 7 5 4 10 -3 6 -8 10 -11 10 -2 0 -4
-4 -4 -10z"/>
<path d="M670 260 c0 -5 5 -10 11 -10 5 0 7 5 4 10 -3 6 -8 10 -11 10 -2 0 -4
-4 -4 -10z"/>
<path d="M748 263 c6 -2 9 -10 6 -15 -4 -7 -2 -8 5 -4 13 9 5 26 -12 25 -9 0
-8 -2 1 -6z"/>
<path d="M1834 261 c4 -5 1 -12 -4 -14 -6 -3 -5 -4 2 -3 15 3 23 26 8 26 -6 0
-9 -4 -6 -9z"/>
<path d="M910 246 c0 -9 0 -19 1 -22 0 -4 -5 -11 -13 -15 -9 -6 -9 -9 -1 -9
21 0 39 45 22 56 -5 3 -9 -2 -9 -10z"/>
<path d="M1721 243 c-1 -18 13 -23 29 -11 12 8 12 9 -2 5 -9 -3 -19 -1 -22 6
-3 9 -5 9 -5 0z"/>
<path d="M1536 212 c-10 -9 -7 -20 9 -25 8 -4 17 -1 21 5 4 6 3 8 -4 4 -6 -3
-13 -2 -16 3 -4 5 2 8 11 6 11 -1 17 -9 15 -20 -2 -10 1 -14 7 -10 6 3 11 12
11 20 0 7 5 15 11 17 7 2 -4 4 -24 5 -20 1 -38 -2 -41 -5z"/>
<path d="M1010 171 c0 -6 4 -13 10 -16 6 -3 7 1 4 9 -7 18 -14 21 -14 7z"/>
<path d="M1511 153 c-1 -17 16 -25 25 -12 4 7 3 9 -4 5 -5 -3 -13 0 -15 6 -4
9 -6 10 -6 1z"/>
<path d="M1310 122 c0 -5 7 -9 15 -9 8 0 12 4 9 9 -7 10 -24 10 -24 0z"/>
<path d="M1446 118 c3 -5 10 -6 15 -3 13 9 11 12 -6 12 -8 0 -12 -4 -9 -9z"/>
<path d="M1215 100 c-3 -5 -1 -10 4 -10 6 0 11 5 11 10 0 6 -2 10 -4 10 -3 0
-8 -4 -11 -10z"/>
</g>
</svg>
